<svg xmlns="http://www.w3.org/2000/svg" viewBox="0 0 165.1 166.38"><defs><style>.cls-1{fill:none;stroke:#a488bf;stroke-width:10px;}.cls-1,.cls-2{stroke-linejoin:round;}.cls-2{fill:#4ec1b8;stroke:#2bb673;stroke-linecap:square;stroke-width:3px;}</style></defs><title>jg</title><g id="Layer_2" data-name="Layer 2"><g id="Layer_1-2" data-name="Layer 1"><rect class="cls-1" x="5" y="5" width="155.1" height="156.38"/><path class="cls-2" d="M134.43,55.51c-15.81,19.92-14.76,49.94-14.76,49.94L99.12,124.31s-1.58-17.8,4.74-32.94,17.92-29,24.24-32.41Z"/><path class="cls-2" d="M114.67,23.1C90.43,44.53,86.05,71.45,86.05,71.45,93.79,89.51,95.17,98,95.17,98s2.55-10.09,3.77-10.09c0,0-.61-22.85,3.61-34S114.67,23.1,114.67,23.1Z"/><path class="cls-2" d="M43.79,106.25s2.1-29.49-7.64-39.59L30.08,55.51a28.63,28.63,0,0,1,10,5,49.23,49.23,0,0,1,23,25s1.85-41.18-12.38-60.84c0,0,5.27,5.84,15.81,21.52s19.6,42,19.6,42c5.9,24.18-2.21,54.2-2.21,54.2-4.48-9.83-40.05-37.46-40.05-37.46"/></g></g></svg>