<svg xmlns="http://www.w3.org/2000/svg" viewBox="0 0 165.1 166.38"><defs><style>.cls-1{fill:none;stroke:#a488bf;stroke-width:10px;}.cls-1,.cls-2{stroke-linejoin:round;}.cls-2{fill:#4ec1b8;stroke:#00a651;stroke-width:0.75px;}</style></defs><title>sup</title><g id="Layer_2" data-name="Layer 2"><g id="Layer_1-2" data-name="Layer 1"><rect class="cls-1" x="5" y="5" width="155.1" height="156.38"/><path class="cls-2" d="M130.15,50c.65-1.85.93-13,.93-13s-.83,1-10.72,8.87S97.07,57.27,97.07,57.27a53.89,53.89,0,0,1-.92,7.49c-.56,1.66-8.69,16.54-8.69,16.54-4.16,3.14-3.14,5.08-3.61,12S84,97.75,86.9,104s7.4,6.57,8.32,6.2,7-6.2,5-6.93-1.66-.93-1.94-4.07,3.24-5.18,3.24-5.18-.28-3.14-6.47,0-4.44,5.27-6.1,5.18-.74-4-.74-4S93,84.9,106.87,80.93l24.21-3.51s4.53-7.76,3.6-9.52c0,0-8.31,3.88-9.33,3.88,0,0,11.83-10.9,11.09-11.92,0,0-11.26-.18-25.93,10.68l-.42.32"/><path class="cls-2" d="M130.28,49.5a141,141,0,0,0,11.7-8c3.79-3.14,8.14-10.07,8.14-10.07,1.57,3.32-3,11-3,11-2.68,4.9-19.22,16.45-25.88,19.69s-7,2.77-7.39,1.75,3.6-6.19,3.6-6.19c6-8-2.4-2.22-2.4-2.22C99.28,68.93,94.57,80.75,94.57,80.75c5.73-10.08,16.18-15.44,16.92-15.07s-1.12,5-1.12,5"/><path class="cls-2" d="M135.7,65.41s9.15-3.89,10.35-5.83-8,.93-8,.93Z"/><path class="cls-2" d="M148.27,49.42,147.34,55s6.93-5.82,7.12-8.87S148.27,49.42,148.27,49.42Z"/><path class="cls-2" d="M132.56,31.4c-.93,4.62-5.82,4.06-5.82,4.06l.64-5.73Z"/><path class="cls-2" d="M142.91,34.63c-1.33,1.79-9.15,10.63-9.15,10.63l-.37-10.17S143.18,22.43,143.46,18C143.46,18,147.25,28.8,142.91,34.63Z"/><path class="cls-2" d="M83,150.52s3.24-10.54,4.53-11.09c0,0-5-4.71-6.26-10.17s-.67-36.87-.67-36.87l-.13-13.31s1.61-5.63,6.14-8.87c0,0,0-7,1.66-7.58s5.45-4.9,5.36-7.21,0-8.22-6.58-16.17c0,0-4-5.27-7.47-5.17,0,0-1.75-7.3-4.16-7.12L73,33.8s-7.76,1.66-10.17,6.75-1.48,4.71-1.48,4.71l-4.15,2.22,3.05,1.29s-1,4.53.64,5,1.3,1.29,3.51.28a9.44,9.44,0,0,0,3.52-3l-2.22-4.53,1.57-.09s4.07-6.38,8.59-6.47,5.48,3.51,5.48,3.51l-3.17.65,4.72,4.07.87,6.1,2.09,3.14s0,3.69-.93,4.06a15.86,15.86,0,0,1-2.59.64s0,9.71-5.63,8l-3.7-4s-1.29,2-.65,2.68,2.59,1.75,1.57,3.32l-.46.37s2.41,44.55,2,48.61a62.43,62.43,0,0,1-2.27,9.89l-4.52,6S78.22,149.41,83,150.06"/><path class="cls-2" d="M64.08,60.32,67.77,66s-1.29,3.23-2.49,1.57S64.08,60.32,64.08,60.32Z"/><path class="cls-2" d="M73.6,64.16s3,3.46,4.06,3.37,3.61-2.4,2.68-4.44-.61-2.58.2-2.77,4-.46,3.17-2.31-3-4.34-2.42-5.45-.76-3.88-.76-3.88-3.88-5-6.93-3.88S69,52.93,69,52.93l-1.58,6S68.33,68.65,73.6,64.16Z"/><path class="cls-2" d="M58.62,57.36l5,16.28c.18,2.22,6.93,10.9,6.93,10.9V99.6c-.84,7.3-9,10.73-9,10.73-4,.29-6.19-7.4-6.19-7.4,2.31-.47,1.2-.93,2.5-2.87s-3.33-6-3.61-6c0,0,5.08-2.58,11.09,4.72,0,0,3.42-4.9-4.07-10,0,0-3-6.33-13.86-8L33.67,78.16s-5.26-4.16-5.08-7l3.33.84S26.56,62.73,28,60.78l18.57,9.89-1.39-5.26s12.39,8.68,15,14.5c0,0-3.42-9.3-6-11.9S40.51,54,36.91,53l6,11.14H40.33L24.06,54.78l-3.7-3.33V44.64l2,2.37s-3.88-21.62.09-25.13c0,0,3,15.34,9.33,20.05,0,0,13.68,11.74,18.4,12.48A26.07,26.07,0,0,1,58.62,57.36Z"/><path class="cls-2" d="M20.36,61.25a9.73,9.73,0,0,0,6.1,8.5l-1.1-5.59-4.44-2.91Z"/><path class="cls-2" d="M13,38.51c-1.94,3.24,3,8.13,2.68,8S17,43.23,17,43.23Z"/><polyline class="cls-2" points="18.61 40.73 19.53 36.02 14.73 29.36 18.24 39.99"/></g></g></svg>